<svg xmlns="http://www.w3.org/2000/svg" width="48" height="48" viewBox="0 0 48 48">
  <g fill="none" fill-rule="evenodd">
    <path fill="#026ECC" fill-rule="nonzero" d="M1.99577841e-05,23.968808 C-0.0124613909,33.6813655 5.83028588,42.4439254 14.8011363,46.1665281 C23.7719866,49.8891309 34.1021431,47.8377849 40.969964,40.969964 C47.8377849,34.1021431 49.8891309,23.7719866 46.1665281,14.8011363 C42.4439254,5.83028588 33.6813655,-0.0124613909 23.968808,1.99577841e-05 C10.7382608,0.0170221812 0.0170221812,10.7382608 1.99577841e-05,23.968808"/>
    <polygon fill="#FFFFFF" points="15.013 12 24.017 22.476 33.021 12 36 12 25.449 24.17 35.691 36 32.712 36 24.017 25.855 15.322 36 12.309 36 22.551 24.17 12 12"/>
  </g>
</svg>
