<svg xmlns="http://www.w3.org/2000/svg" width="184" height="184" viewBox="0 0 184 184">
  <g fill="none">
    <rect width="182" height="182" x="1" y="1" stroke="#026ECC" stroke-width="2" rx="20"/>
    <g fill="#026ECC" transform="translate(42 18)">
      <path d="M68.4291344,76.0665964 C68.4291344,73.3550275 71.736755,70.0020696 70.7586701,67.6438648 C69.744582,65.1996525 64.9968363,65.181651 63.1546763,63.3388242 C61.3118496,61.497331 61.2925146,56.750252 58.8483023,55.7368306 C56.4894307,54.7587457 53.1378063,58.067033 50.4255707,58.067033 C47.7133352,58.067033 44.3617107,54.7587457 42.0035059,55.7361639 C39.5592936,56.750252 39.5399586,61.4966642 37.6977986,63.3388242 C35.8549719,65.1809842 31.1092263,65.2003192 30.095805,67.6445315 C29.11772,70.0027364 32.4260074,73.3543608 32.4260074,76.0665964 C32.4260074,78.7788319 29.11772,82.1304564 30.0951383,84.4886612 C31.1085596,86.9342069 35.8556386,86.9542087 37.6971319,88.7970354 C39.5386251,90.6398621 39.5579602,95.3869411 42.0028392,96.4003624 C44.361044,97.3784474 47.7126684,94.0701601 50.4255707,94.0701601 C53.1371396,94.0701601 56.4900975,97.3784474 58.848969,96.3996957 C61.293848,95.3856076 61.313183,90.6391954 63.1560098,88.7970354 C64.9988365,86.9548754 69.7452487,86.9348737 70.7593368,84.4899946 C71.7374218,82.1317898 68.4291344,78.7788319 68.4291344,76.0665964 Z M57.2649573,80.0535114 C57.2649573,83.1662785 55.2307332,85.1067047 52.1770512,85.5965276 L52.1770512,88.034188 L48.1199974,88.034188 L48.1220082,85.4563857 C45.7030577,85.0575203 43.7472535,83.5260659 43.7472535,83.5260659 L46.0093643,80.521774 C46.0093643,80.521774 48.0905062,82.1697888 50.6609343,82.1697888 C52.2983674,82.1697888 53.2863233,81.5142212 53.2863233,80.4429442 L53.2863233,80.3897172 C53.2863233,79.3709935 52.6616456,78.8501777 49.622039,78.0645746 C45.9557439,77.1246806 43.5897436,76.1066306 43.5897436,72.4743953 L43.5897436,72.4231896 C43.5897436,69.6816638 45.4001025,67.7115922 48.1220082,67.105209 L48.1220082,64.9613075 L52.1770512,64.957265 L52.1770512,67.1382232 C54.3118135,67.3511311 55.7314137,68.5275145 55.7314137,68.5275145 L53.7286916,71.6894659 C53.7286916,71.6894659 52.1381764,70.4598556 49.9075676,70.4598556 C48.3740241,70.4598556 47.567037,71.1646076 47.567037,72.0546434 L47.567037,72.1078703 C47.567037,73.3098566 48.3485544,73.7006369 51.4920506,74.5098215 C55.1838154,75.4786871 57.2649573,76.8073401 57.2649573,79.9975894 L57.2649573,80.0535114 Z"/>
      <path d="M96.5500555 98.5286181C96.7758955 101.319953 95.7651392 104.069633 93.7858313 106.048463L67.7296202 132.135407C63.9675923 135.923873 58.8478451 138.047705 53.511992 138.033325L21.2249479 138.033325 13.0908785 146.176988C11.9834397 147.285733 10.1879266 147.285733 9.08048785 146.176988 7.97304907 145.068243 7.97304902 143.270612 9.08048775 142.161867L18.0528874 133.269622C18.5850613 132.738163 19.3064242 132.440301 20.0580828 132.441645L53.4893345 132.441645C57.3155689 132.449538 60.9863298 130.926417 63.6852431 128.211023L89.7414542 102.124079C91.2134478 100.597495 91.1921063 98.1715539 89.6934839 96.6711639 88.1948614 95.1707738 85.7717787 95.1494072 84.2469923 96.6231369L63.8551749 117.367928 63.7872022 117.390613C61.9950852 119.211993 59.5435643 120.230574 56.9899298 120.214808L37.0852503 120.214808C35.5210711 120.214808 34.2530534 118.945295 34.2530534 117.379271 34.2530534 115.813247 35.5210711 114.543733 37.0852503 114.543733L57.0239161 114.543733C59.144943 114.543733 60.8643751 112.822273 60.8643751 110.698745 60.8643751 108.575216 59.144943 106.853756 57.0239161 106.853756L22.6183887 106.853756C19.4290874 106.845149 16.3691467 108.115501 14.1217982 110.381164L9.11447411 115.349026C8.00703528 116.457771 6.21152221 116.457771 5.10408339 115.349026 3.99664458 114.240281 3.99664457 112.44265 5.10408336 111.333905L10.1227362 106.309333C13.4212398 102.98874 17.9067436 101.123019 22.5844024 101.12597L57.0239161 101.12597C60.8781341 101.11502 64.3526276 103.449042 65.8037264 107.023888L80.2819167 92.5399631C82.9159691 89.906217 86.8385717 89.0449192 90.3317858 90.3332826 93.8249999 91.621646 96.2520763 94.8248255 96.5500555 98.5399602L96.5500555 98.5286181zM48.9381836.00431611069C21.5949184.363206591-.352973412 22.9673005.00430071857 50.4342724.185601944 64.3725158 6.05766282 76.9159083 15.390319 85.8467773L15.9058299 86.3247863 16.3816862 85.8467773 20.823011 81.3056911 21.338522 80.7480139 20.7833563 80.3098389C12.8920357 72.783432 7.93033095 62.1718067 7.77661924 50.3546042 7.60273756 36.9867519 13.6415524 25.0201977 23.2022922 17.2126424L44.0210025 52.4658109 44.5365135 53.3421609C45.6056304 55.0055814 47.4549765 56.1305471 49.5726586 56.1305471 52.8890467 56.1305471 55.5605162 53.4469915 55.5605162 50.1155997 55.5605162 48.5285089 54.9718872 47.0498216 53.9743288 45.9728545L53.7364007 45.7338499 23.2419469 17.1728083C30.2941553 11.4294976 39.2520982 7.94049283 49.0571477 7.8117975 72.1763996 7.50834842 91.0664392 26.0017288 91.368698 49.2392497 91.5268954 61.4012624 86.5817505 72.4543552 78.4809249 80.2301708L77.965414 80.7081798 78.4412703 81.226023 83.0015592 85.6476068 83.4774154 86.1256159 83.9532717 85.6476068C93.4578871 76.4283085 99.3267641 63.4396205 99.1410165 49.1595816 98.7837411 21.6923764 76.2682379-.354401012 48.9381836.00431611069zM49.3674462 1.713612C76.0206616 1.36427239 97.9379848 22.7983015 98.2864177 49.5476954 98.4643739 63.2093969 92.9493977 75.6711722 83.9686699 84.6153846L80.389233 81.1046262C88.476252 73.0912703 93.4356144 61.9420208 93.275206 49.6274854 92.9622378 25.5995548 73.3475661 6.42659709 49.4072177 6.74037974 39.3171522 6.87262809 30.0819605 10.4729849 22.8000699 16.3550704L19.6581197 12.4852571C27.7900748 5.89899776 38.117372 1.86106513 49.3674462 1.713612z"/>
    </g>
  </g>
</svg>
