<svg xmlns="http://www.w3.org/2000/svg" width="184" height="184" viewBox="0 0 184 184">
  <g fill="none">
    <rect width="182" height="182" x="1" y="1" stroke="#026ECC" stroke-width="2" rx="20"/>
    <g transform="translate(23 21)">
      <path stroke="#026ECC" stroke-width="4" d="M15.0000031,22.9756556 L15.0000057,22.973782 C14.9967754,26.4253215 16.3647979,29.736778 18.8031236,32.1796683 C21.2414496,34.6225587 24.5503438,35.9967736 28.0000129,36 C35.1765486,35.9999874 40.9955261,30.184628 40.9999974,23.0080998 C41.0044688,15.8315716 35.1927423,10.0089656 28.0162122,10.0000104 C20.8396822,9.9910551 15.0134423,15.7991386 15.0000031,22.9756556 Z M136.999804,85.5300294 C135.735113,69.2101206 122.37159,56.220817 105.563391,55.0011109 C105.405322,54.9914834 105.252908,55.0449699 105.145508,55.1432812 C105.050028,55.2306813 104.999771,55.3441127 105.000005,55.4625685 L105.000005,85.9999374 L136.468713,85.9999848 C136.626336,86.0011038 136.77387,85.9401933 136.874042,85.8378136 C136.960099,85.7498598 137.003236,85.6399541 136.999804,85.5300294 Z M18.8391307,43.8455125 C18.8383924,43.8446007 18.8376575,43.8436853 18.8369259,43.8427664 L18.8391307,43.8455125 Z M37.295828,44.0018453 L37.4296055,43.8353262 C37.3431811,43.9422994 37.2196167,44.0014546 37.0895844,44.0018449 L37.295828,44.0018453 Z M18.9646471,44.0018463 L19.1642799,44.0018539 C19.0391512,44.0017861 18.9193882,43.9446358 18.8391307,43.8455125 L18.9646471,44.0018463 Z M18.9646471,44.0018463 L26.1925371,53.0043638 C26.6139999,53.5727054 27.3487152,53.941211 28.1288485,53.941211 C28.9089818,53.941211 29.6436971,53.5727054 30.1098443,52.9465776 L37.295828,44.0018453 L41.3582616,44.0018539 C42.9051716,43.9766022 44.4092738,44.2477073 45.8183909,44.7995119 C46.9718706,45.271514 48.0620722,45.9512202 49.0145881,46.7983869 L49.0998004,46.8741746 L80.3010342,68.8214656 C80.5244874,68.9786463 80.7323405,69.1566989 80.9217649,69.3531869 L81.6326031,70.0905325 L82.6463623,69.9447185 C84.3136812,69.7048997 85.9960337,69.5838348 87.6806299,69.5824448 C89.8935969,69.5824393 91.6877807,71.3666584 91.6930011,73.5678035 L91.6929954,98.8035219 L91.6929954,100.803522 L119.000202,100.803522 C121.206391,100.80872 122.9948,102.591412 123.000006,104.788874 C122.993373,121.661082 110.967521,136.16052 94.3337583,139.340831 C77.6984579,142.521436 61.140921,133.484761 54.8690171,117.805163 C48.5981983,102.128278 54.3734873,84.2208289 68.6368189,75.1216268 L71.3802395,73.3714789 L46.2960502,58.5281872 L36.4025897,136.788938 C36.1721242,138.612732 34.6202969,139.986851 32.7708159,140.000051 L23.4583894,140 C21.6182177,139.985673 20.0641102,138.601671 19.8421452,136.770732 L13.3563112,87.6011281 L13.2152861,86.5320246 L8.34897433,84.1774623 C5.22859874,82.6782825 3.18233291,79.6074905 3.00629297,76.1677047 L2.08260149,56.33597 L2.07173138,56.2010454 C1.51175431,51.3205271 4.27779628,46.6631644 8.84360892,44.8036582 C10.2284782,44.2537661 11.7262094,43.9789663 13.2343703,44.0016282 L18.9646471,44.0018463 Z M29.2863522,50.470742 L29.3563151,50.5579025 C29.3339653,50.5278822 29.310623,50.4988182 29.2863522,50.470742 Z M60.0012669,104.497737 L60.0011983,104.50725 C60.0617499,91.9812793 68.6390672,81.0930851 80.8317648,78.0591817 L83.3146978,77.4413546 L83.3146978,104.516918 C83.3146978,106.723325 85.1130143,108.514984 87.3350516,108.514984 L114.524804,108.514984 L113.946905,110.972761 C110.768336,124.491075 97.8968817,133.462014 84.067101,131.802936 C70.2360778,130.143709 59.8680919,118.382995 60.0012669,104.497737 Z"/>
      <path fill="#026ECC" d="M90.7555556,12.9777778 L88,16 C88.3111111,17.2888889 88.4888889,18.6222222 88.4888889,20 C88.4888889,29.1111111 81.0666667,36.4888889 72,36.4888889 C62.9333333,36.4888889 55.5111111,29.1111111 55.5111111,20 C55.5111111,10.8888889 62.8888889,3.51111111 72,3.51111111 C73.3777778,3.51111111 74.7555556,3.68888889 76.0444444,4 L79.0222222,1.24444444 C76.8,0.444444444 74.4444444,0 72,0 C60.9333333,0 52,8.93333333 52,20 C52,31.0666667 60.9333333,40 72,40 C83.0666667,40 92,31.0666667 92,20 C92,17.5555556 91.5555556,15.2 90.7555556,12.9777778 Z"/>
      <path fill="#026ECC" d="M78 7.5C78 8.33823529 78.665529 9 79.5085324 9L89.4914676 9C90.334471 9 91 8.33823529 91 7.5 91 6.66176471 90.334471 6 89.4914676 6L79.5085324 6C78.665529 6 78 6.66176471 78 7.5zM62 27.4087452L62 27.4087452C64.3234624 30.2072243 67.9225513 32 71.977221 32 76.0318907 32 79.6309795 30.2072243 82 27.365019L81.9544419 27.4087452C80.7699317 24.6102662 78.3553531 22.4239544 75.3029613 21.5057034 77.4441913 20.3688213 78.9020501 18.1825095 78.9020501 15.6463878 78.9020501 11.973384 75.8041002 9 71.977221 9 68.1503417 9 65.0523918 11.973384 65.0523918 15.6463878 65.0523918 18.1825095 66.5102506 20.3688213 68.6514806 21.5057034 65.5990888 22.4239544 63.1845103 24.6102662 62 27.4087452z"/>
    </g>
  </g>
</svg>
