<svg xmlns="http://www.w3.org/2000/svg" width="28" height="28" viewBox="0 0 28 28">
  <g fill="#FFFFFF">
    <path d="M16.975058,12.1243124 C16.1466775,12.0903286 15.3680007,12.5193516 14.9541588,13.2377554 L14.9541588,12.2801944 L12.7272727,12.2801944 L12.7272727,19.0332266 L14.9541588,19.0332266 L14.9541588,15.2642218 C14.9431072,15.0757496 14.9676599,14.8868823 15.0265326,14.7075003 C15.1967514,14.2160164 15.6588247,13.8856452 16.1789462,13.8835524 C16.9861924,13.8835524 17.2923893,14.5015133 17.2923893,15.4089694 L17.2923893,19.0220921 L19.5192754,19.0220921 L19.5192754,15.1250414 C19.5192754,13.0540373 18.4058323,12.0909091 16.9360875,12.0909091 L16.975058,12.1243124 Z"/>
    <rect width="2.244" height="6.753" x="8.909" y="12.091"/>
    <path d="M13.9180382,0 C6.23131796,1.2658382e-13 0,6.23131796 0,13.9180382 C0,21.6047585 6.23131796,27.8360764 13.9180382,27.8360764 C21.6047585,27.8360764 27.8360764,21.6047585 27.8360764,13.9180382 C27.8360764,6.23131796 21.6047585,1.2658382e-13 13.9180382,1.2658382e-13 L13.9180382,0 Z M21.3001657,20.2145587 C21.2762476,20.8120366 20.7846789,21.2839426 20.1867226,21.283464 L7.54357671,21.283464 C6.94562045,21.2839426 6.45405172,20.8120366 6.43013366,20.2145587 L6.43013366,7.40996355 C6.45113476,6.81029639 6.94354204,6.33512337 7.54357671,6.335491 L20.1978571,6.335491 C20.7978917,6.33512337 21.290299,6.81029639 21.3113001,7.40996355 L21.3001657,20.2145587 Z"/>
    <path d="M9.77299575,9.06730272 C9.3370721,9.03716729 8.92072893,9.25264382 8.69359923,9.62593952 C8.46646954,9.99923521 8.46646954,10.4680334 8.69359923,10.8413291 C8.92072893,11.2146248 9.3370721,11.4301014 9.77299575,11.3999659 L9.77299575,11.3999659 C10.2089194,11.4301014 10.6252626,11.2146248 10.8523923,10.8413291 C11.079522,10.4680334 11.079522,9.99923521 10.8523923,9.62593952 C10.6252626,9.25264382 10.2089194,9.03716729 9.77299575,9.06730272 Z"/>
  </g>
</svg>
