<svg xmlns="http://www.w3.org/2000/svg" width="184" height="184" viewBox="0 0 184 184">
  <g fill="none">
    <rect width="182" height="182" x="1" y="1" stroke="#026ECC" stroke-width="2" rx="20"/>
    <g transform="translate(33 27)">
      <polygon fill="#037DBD" points="41.747 38.317 21 66.306 24.909 69 42.949 44.902 61.14 57.625 105.34 8.232 105.34 14.069 110 14.069 110 0 94.966 0 94.966 4.79 102.032 4.79 60.389 51.189"/>
      <path fill="#026ECC" d="M74.4076433,114.871612 L112.588535,114.871612 C116.04586,114.871612 118,111.726106 118,108.730385 L118,96.2981455 L117.849682,96.2981455 L117.849682,30.5420827 C117.849682,27.3965763 115.294268,25 112.287898,25 L96.955414,25 L96.955414,29.7931526 L112.438217,29.7931526 C112.889172,29.7931526 113.189809,30.0927247 113.189809,30.5420827 L113.189809,96.2981455 L107.477707,96.2981455 L107.477707,38.6305278 L91.543949,38.6305278 L91.543949,96.2981455 L84.3286624,96.2981455 L84.3286624,73.0813124 L68.5452229,73.0813124 L68.5452229,96.2981455 L61.3299363,96.2981455 L61.3299363,66.6405136 L45.3961783,66.6405136 L45.3961783,96.2981455 L38.1808917,96.2981455 L38.1808917,82.5178317 L22.2471338,82.5178317 L22.2471338,96.2981455 L4.81019108,96.2981455 L4.81019108,89.1084165 L14.1299363,89.1084165 L14.1299363,84.3152639 L4.81019108,84.3152639 L4.81019108,77.724679 L14.1299363,77.724679 L14.1299363,72.9315264 L4.81019108,72.9315264 L4.81019108,66.3409415 L14.1299363,66.3409415 L14.1299363,61.5477889 L4.81019108,61.5477889 L4.81019108,54.957204 L14.1299363,54.957204 L14.1299363,50.1640514 L4.81019108,50.1640514 L4.81019108,43.5734665 L14.1299363,43.5734665 L14.1299363,38.7803138 L4.81019108,38.7803138 L4.81019108,30.6918688 C4.81019108,30.2425107 5.11082803,29.9429387 5.56178344,29.9429387 L75.4598726,29.9429387 L75.4598726,25.149786 L5.56178344,25.149786 C2.55541401,25.149786 0,27.6961484 0,30.6918688 L0,96.2981455 L0,96.2981455 L0,108.430813 C0,111.726106 3.00636943,114.721826 6.16305732,114.721826 L43.5923567,114.721826 L43.5923567,116.369472 C43.5923567,118.466476 43.5923567,121.162625 43.4420382,122.510699 C43.2917197,123.559201 43.1414013,123.708987 43.1414013,123.708987 C42.9910828,123.858773 42.8407643,123.858773 42.6904459,124.008559 L42.5401274,124.158345 C42.2394904,124.308131 41.4878981,124.757489 40.1350318,125.206847 L35.0242038,125.206847 L35.0242038,130 L83.1261146,130 L83.1261146,125.206847 L77.8649682,125.206847 C76.5121019,124.607703 75.7605096,124.308131 75.4598726,124.008559 C75.3095541,123.858773 75.1592357,123.858773 75.0089172,123.708987 C75.0089172,123.559201 74.8585987,123.259629 74.7082803,122.360913 C74.4076433,121.012839 74.4076433,118.466476 74.5579618,116.369472 C74.4076433,115.920114 74.4076433,115.32097 74.4076433,114.871612 Z M96,43 L102,43 L102,96 L96,96 L96,43 Z M73,78 L79,78 L79,97 L73,97 L73,78 Z M27,87 L33,87 L33,96 L27,96 L27,87 Z M5,108.35 L5,101 L114,101 L114,108.5 C114,109.25 113.547091,110 113.396122,110 L6.50969529,110 C6.0567867,110 5,108.95 5,108.35 Z M48,125 C48.1523179,124.565217 48.3046358,123.985507 48.4569536,123.26087 C48.7615894,121.521739 48.7615894,118.913043 48.7615894,116.449275 L48.7615894,115 L70.2384106,115 L70.2384106,116.449275 C70.2384106,118.913043 70.2384106,121.521739 70.5430464,123.26087 C70.6953642,123.985507 70.8476821,124.565217 71,125 L48,125 Z"/>
      <path fill="#026ECC" d="M59.90625,103.483871 C59.75,103.322581 59.59375,103.322581 59.4375,103.16129 C59.28125,103.16129 59.125,103 58.96875,103 L58.03125,103 C57.875,103 57.71875,103.16129 57.5625,103.16129 C57.40625,103.16129 57.25,103.322581 57.09375,103.483871 C57.09375,103.645161 56.9375,103.806452 56.78125,103.806452 C56.3125,104.290323 56,104.935484 56,105.580645 C56,106.225806 56.3125,106.870968 56.78125,107.354839 C57.09375,107.677419 57.25,107.83871 57.5625,107.83871 C57.875,108 58.1875,108 58.5,108 C58.8125,108 59.125,108 59.4375,107.83871 C59.75,107.677419 60.0625,107.516129 60.21875,107.354839 C60.6875,106.870968 61,106.225806 61,105.580645 C61,104.935484 60.6875,104.290323 60.21875,103.806452 C60.21875,103.806452 60.0625,103.645161 59.90625,103.483871 Z"/>
    </g>
  </g>
</svg>
