<svg xmlns="http://www.w3.org/2000/svg" width="184" height="184" viewBox="0 0 184 184">
  <g fill="none">
    <rect width="182" height="182" x="1" y="1" stroke="#026ECC" stroke-width="2" rx="20"/>
    <g fill="#026ECC" transform="translate(30 32)">
      <path d="M83.8910918 88.4745763C78.5724831 88.4745763 74.2372881 83.9157078 74.2372881 78.3139443 74.2372881 72.6843365 78.5724831 68.1355932 83.8910918 68.1355932 89.2385536 68.1355932 93.559322 72.6868678 93.559322 78.3139443 93.559322 83.9157078 89.2337448 88.4745763 83.8910918 88.4745763zM81.2811612 114.175091L81.5917636 113.967158 81.6036187 113.967158 93.3519798 101.327772C93.8380371 100.802988 94.6370679 100.793086 95.1373513 101.295592 95.6376347 101.800574 95.6494898 102.642209 95.1681745 103.159567L84.2615224 114.897908 109.830508 114.897908C109.830508 114.897908 107.032715 101.706508 98.4994454 92.0524539 96.2280165 89.1884177 90.1368884 86.4481515 85.9330854 90.5820671 82.4903769 93.965937 80.4702753 99.3994369 79.2966247 104.184382L68.5891376 92.86686C66.8654123 91.0523929 64.067619 91.0400159 62.3272967 92.829729 60.5940874 94.624393 60.5774903 97.5503142 62.2941025 99.3647813L75.7235106 113.54634C76.5818167 114.447385 77.7175311 114.915235 78.8722137 114.915235 79.7068096 114.917711 80.5437766 114.677597 81.2811612 114.175091zM26.9587727 88.4745763C32.2763003 88.4745763 36.6101695 83.9157078 36.6101695 78.3139443 36.6101695 72.6843365 32.2763003 68.1355932 26.9587727 68.1355932 21.6099796 68.1355932 17.2881356 72.6868678 17.2881356 78.3139443 17.2881356 83.9157078 21.6123847 88.4745763 26.9587727 88.4745763zM28.5481858 114.175091L28.2399412 113.967158 28.2257146 113.967158 16.4792268 101.327772C15.9931489 100.802988 15.1940843 100.793086 14.6985219 101.295592 14.1934751 101.800574 14.1792484 102.642209 14.6653263 103.159567L25.5724405 114.897908 0 114.897908C0 114.897908 2.80028301 101.706508 11.3339143 92.0524539 13.6030683 89.1884177 19.6991966 86.4481515 23.9008067 90.5820671 27.3412899 93.965937 29.3614771 99.3994369 30.5351774 104.184382L41.2478604 92.86686C42.9645454 91.0523929 45.7624573 91.0400159 47.5004822 92.829729 49.2385071 94.624393 49.2503627 97.5503142 47.5407911 99.3647813L34.1084429 113.54634C33.2501004 114.447385 32.1095957 114.915235 30.9619776 114.915235 30.1273462 114.917711 29.2879726 114.677597 28.5481858 114.175091z"/>
      <polygon points="50.847 48.814 50.847 74.229 59.484 74.229 59.484 57.745 111.363 57.745 111.363 114.915 120 114.915 120 48.814"/>
      <polygon points="50.847 102.712 58.983 102.712 58.983 115.932 50.847 115.932"/>
      <path d="M85.4200793,0 C73.6223105,0 64.0677966,10.0157296 64.0677966,22.3792543 C64.0677966,34.7300331 73.6296096,44.7457627 85.4200793,44.7457627 C97.215415,44.7457627 106.779661,34.7300331 106.779661,22.3792543 C106.779661,10.0131804 97.215415,0 85.4200793,0 Z M86.6916631,36.1912097 L86.6916631,40.6779661 L82.8600045,40.6779661 L82.8600045,36.5408938 C80.2638996,36.4123335 77.7399087,35.5766912 76.2711864,34.6664838 L77.434626,29.5677801 C79.0571916,30.5705509 81.34561,31.4756158 83.8647933,31.4756158 C86.1195585,31.4756158 87.6195302,30.472845 87.6195302,28.7732771 C87.6195302,27.1174197 86.3815727,26.0683672 83.4801851,24.9781753 C79.3264173,23.4123102 76.5067589,21.2242129 76.5067589,17.004862 C76.5067589,13.1197681 78.9105598,10.1037421 83.05952,9.23724528 L83.05952,5.08474576 L86.8575253,5.08474576 L86.8575253,8.92355801 C89.407958,9.01097905 91.157925,9.66920808 92.5112649,10.3660052 L91.3574405,15.2975805 C90.3814973,14.7730542 88.5570125,13.7625698 85.7661997,13.7625698 C83.2470165,13.7625698 82.432128,15.030175 82.432128,16.2489271 C82.432128,17.6425214 83.7878716,18.6067241 87.1243472,19.9668926 C91.737241,21.7975921 93.559322,24.1965284 93.559322,28.1664722 C93.5545144,32.0412813 91.1555212,35.3504249 86.6916631,36.1912097 Z"/>
    </g>
  </g>
</svg>
