<svg xmlns="http://www.w3.org/2000/svg" width="28" height="28" viewBox="0 0 28 28">
  <path fill="#FFFFFF" d="M14,0 C6.2680135,0 0,6.2680135 0,14 C0,21.7319865 6.2680135,28 14,28 C21.7319865,28 28,21.7319865 28,14 C28,6.2680135 21.7319865,0 14,0 Z M20.9664,10.8864 L20.9664,11.3288 C20.9664,15.8816 17.5,21.1344 11.1552,21.1344 C9.28142094,21.1370727 7.44707437,20.5963004 5.8744,19.5776 C6.14554241,19.612214 6.41865912,19.62905 6.692,19.628 C8.24352242,19.6286441 9.75027075,19.1079876 10.9704,18.1496 C9.49694915,18.1208057 8.2039422,17.1606075 7.7504,15.7584 C7.96426059,15.8010696 8.18193093,15.8217107 8.4,15.82 C8.70625907,15.820918 9.01129757,15.781376 9.3072,15.7024 C7.70795171,15.3765358 6.55593089,13.974482 6.5464,12.3424 L6.5464,12.2976 C7.02305984,12.5645492 7.55712315,12.7124732 8.1032,12.7288 C7.14808815,12.089738 6.57465596,11.0163905 6.5744,9.8672 C6.57248527,9.25679383 6.73497363,8.65713439 7.0448,8.1312 C8.79331422,10.2849786 11.3748528,11.5940712 14.1456,11.732 C14.0859592,11.4731339 14.0577555,11.2080198 14.0616,10.9424 C14.0632716,9.52823018 14.9278997,8.25831991 16.2430427,7.73843711 C17.5581856,7.21855432 19.0574253,7.55401542 20.0256,8.5848 C20.7971143,8.43445061 21.5375019,8.15420162 22.2152,7.756 C21.958964,8.55477469 21.419113,9.23207844 20.6976,9.66 C21.3825835,9.57301385 22.0507457,9.38426745 22.68,9.1 C22.2162185,9.79175156 21.6342691,10.3964481 20.9608,10.8864 L20.9664,10.8864 Z"/>
</svg>
