<svg xmlns="http://www.w3.org/2000/svg" width="184" height="184" viewBox="0 0 184 184">
  <g fill="none">
    <rect width="182" height="182" x="1" y="1" stroke="#026ECC" stroke-width="2" rx="20"/>
    <g fill="#026ECC" transform="translate(32 28)">
      <path d="M77.0072574 99.3141965C76.9555356 99.9848901 77.1818186 100.651325 77.6365397 101.183622L96.7024988 121.55993C99.6808141 124.966628 103.844421 127 107.837778 127 108.094232 127 108.348531 126.991483 108.60283 126.976579 110.885055 126.827536 112.919447 126.029091 114.514204 124.664283L116.492564 122.986485C118.876078 120.961629 120.149728 117.825338 119.985942 114.382445 119.828622 111.109886 118.455838 107.820294 116.121891 105.122615L97.0279153 84.7314027C96.3081199 83.8967619 94.2004554 83.7392021 93.3750612 84.4524794 92.8362921 84.9017376 92.5151858 85.5170723 92.465619 86.189895 92.3923464 86.9031723 92.6013888 87.5717366 93.0539548 88.091258L112.150085 108.4846C113.718981 110.285891 114.671524 112.521536 114.768503 114.614526 114.811604 115.713186 114.647818 117.744429 113.087543 119.062395L111.117804 120.733806C110.333356 121.393854 109.370037 121.766461 108.253707 121.838854 105.697787 122.047514 102.753953 120.576246 100.678614 118.202204L81.6191205 97.8195081C81.1493139 97.2659197 80.4230532 96.9508002 79.6105895 96.9508002L79.4080123 96.9571878C78.8132113 96.9976423 78.3132336 97.1807523 77.9598011 97.4937426 77.4081016 97.955776 77.0740648 98.5987901 77.0072574 99.3141965zM49.4573813 98C24.0030792 98 2.76480613 78.0850822 1.10446423 52.6593732-.639215293 25.9750927 19.6545647 2.84643708 46.3396994 1.10281338 73.2150148-.634399952 96.1713251 19.8574522 97.8957728 46.3387373 99.6373155 73.0230177 79.3456724 96.1516734 52.6584008 97.8952971 51.5878329 97.9658113 50.5151281 98 49.4573813 98zM49.042629 6C48.1027692 6 47.1501222 6.02983658 46.1974751 6.0937721 22.5390081 7.6388806 4.54740564 28.1430032 6.09252668 51.8034095 7.6248605 75.2847963 28.0119334 93.4382228 51.8004037 91.9101638 75.4588707 90.3629241 93.4526044 69.8588015 91.9074833 46.2005264 90.4369543 23.6568606 71.6077897 6 49.042629 6z"/>
      <path d="M49.4608268,88 C29.2599451,88 12.4015161,72.1893811 11.0838804,52.0085394 C10.4132404,41.7461471 13.781487,31.8384459 20.56097,24.1083322 C27.3426024,16.3782186 36.7294135,11.7521884 46.9910659,11.0815 C68.3053821,9.70357935 86.5437819,25.9677728 87.9173043,46.9912743 C89.2994247,68.1759989 73.1911668,86.5360936 52.0101188,87.9183136 C51.1546228,87.9720547 50.3034259,88 49.4608268,88 Z M49.5372829,13 C48.7382985,13 47.9328357,13.0259139 47.1230541,13.0777417 C37.3948781,13.7126326 28.4959184,18.0985626 22.0651729,25.4278813 C15.6344275,32.7550405 12.4428083,42.1488344 13.0798365,51.8773497 C14.3841247,71.8116281 31.6983346,87.2368855 51.8780916,85.9217544 C71.9606747,84.6087827 87.234235,67.2054299 85.9213092,47.1221464 C84.6731658,27.9868803 68.6913166,13 49.5372829,13 Z"/>
      <path d="M43 70L57 70 57 23 43 23 43 70zM53 27L53 66 47 66 47 27 53 27zM62 35L62 71 76 71 76 35 62 35zM66 67L66 39 72 39 72 67 66 67zM24 71L38 71 38 35 24 35 24 71 24 71zM34 39L34 67 28 67 28 39 34 39z"/>
    </g>
  </g>
</svg>
