<svg xmlns="http://www.w3.org/2000/svg" width="120" height="28" viewBox="0 0 120 28">
  <g fill="none" fill-rule="evenodd">
    <path fill="#0066E0" fill-rule="nonzero" d="M14.2421009,27.9950042 C9.19960341,28.1307084 4.4815167,25.4933534 1.92065002,21.1074582 C-0.640216672,16.7215629 -0.640216672,11.2784371 1.92065002,6.89254181 C4.4815167,2.50664655 9.19960341,-0.130708384 14.2421009,0.00499578994 L105.757899,0.00499578994 C110.800397,-0.130708384 115.518483,2.50664655 118.07935,6.89254181 C120.640217,11.2784371 120.640217,16.7215629 118.07935,21.1074582 C115.518483,25.4933534 110.800397,28.1307084 105.757899,27.9950042 L14.2421009,27.9950042 Z"/>
    <text fill="#FFFFFF" font-family="Exo-Bold, Exo" font-size="14" font-weight="bold">
      <tspan x="14" y="18">Read more</tspan>
    </text>
    <g transform="translate(94 2)">
      <path fill="#FFFFFF" fill-rule="nonzero" d="M0,12 C0,18.627417 5.372583,24 12,24 C18.627417,24 24,18.627417 24,12 C24,5.372583 18.627417,0 12,0 C5.372583,0 0,5.372583 0,12"/>
      <polyline stroke="#0066E0" stroke-width="2" points="8 5 16 11.496 8 18" stroke-linecap="round" stroke-linejoin="round"/>
    </g>
  </g>
</svg>
